<svg xmlns="http://www.w3.org/2000/svg" viewBox="0 0 32 32">
  <defs>
    <linearGradient id="grad" x1="0%" y1="0%" x2="100%" y2="100%">
      <stop offset="0%" style="stop-color:#ef4444;stop-opacity:1" />
      <stop offset="100%" style="stop-color:#dc2626;stop-opacity:1" />
    </linearGradient>
  </defs>
  <rect width="32" height="32" rx="8" fill="url(#grad)"/>
  <path d="M23.5 16.5c0 .3-.2.6-.4.8l-6 4c-.2.1-.4.2-.6.2-.2 0-.4-.1-.6-.2-.4-.2-.6-.6-.6-1v-8c0-.4.2-.8.6-1 .4-.2.8-.2 1.2 0l6 4c.2.2.4.5.4.8v.4z" fill="white"/>
  <path d="M12 10h-1.5c-.8 0-1.5.7-1.5 1.5v9c0 .8.7 1.5 1.5 1.5H12c.8 0 1.5-.7 1.5-1.5v-9c0-.8-.7-1.5-1.5-1.5z" fill="white" opacity="0.9"/>
</svg>
